<svg xmlns="http://www.w3.org/2000/svg" xml:space="preserve" width="256" height="256"><path fill="#F04924" d="M0 0h256v256H0z"/><path fill="#FFF" d="M151.605 152.305c21.001-.396 32.94-10.087 32.94-25.726 0-25.964-29.203-40.661-84.469-42.508l-4.233-.151v30.984l20.275 1.569v-12.309c29.007 2.116 48.899 10.385 48.899 20.574 0 7.198-9.332 8.719-17.172 8.719-14.099 0-22.741-.701-32.765-1.504-4.562-.365-9.325-.751-14.89-1.082l-4.349-.277v62.896c-23.967-11.896-40.514-36.553-40.514-65.058 0-40.081 32.599-72.671 72.678-72.671 40.058 0 72.655 32.59 72.655 72.671 0 35.08-25.006 64.443-58.129 71.191v21.182c44.732-7.008 79.097-45.711 79.097-92.373 0-51.633-42.001-93.639-93.623-93.639-51.627 0-93.639 42.006-93.639 93.639 0 47.578 35.715 86.894 81.732 92.775v-63.334h.018v-6.484c5.355.306 14.479 1.318 35.489.916"/></svg>