<?xml version="1.0" encoding="utf-8"?>
<!-- Generator: Adobe Illustrator 15.1.0, SVG Export Plug-In . SVG Version: 6.00 Build 0)  -->
<!DOCTYPE svg PUBLIC "-//W3C//DTD SVG 1.1//EN" "http://www.w3.org/Graphics/SVG/1.1/DTD/svg11.dtd">
<svg version="1.1" xmlns="http://www.w3.org/2000/svg" xmlns:xlink="http://www.w3.org/1999/xlink" x="0px" y="0px" width="256px"
	 height="256px" viewBox="0 0 256 256" enable-background="new 0 0 256 256" xml:space="preserve">
<g id="Laag_2">
</g>
<g id="Laag_1">
	<rect fill="#F04924" width="256" height="256"/>
	<g>
		<path fill="#FFFFFF" d="M151.605,152.305c21.001-0.396,32.94-10.087,32.94-25.726c0-25.964-29.203-40.661-84.469-42.508
			l-4.233-0.151v30.984l20.275,1.569v-12.309c29.007,2.116,48.899,10.385,48.899,20.574c0,7.198-9.332,8.719-17.172,8.719
			c-14.099,0-22.741-0.701-32.765-1.504c-4.562-0.365-9.325-0.751-14.89-1.082l-4.349-0.277v62.896
			c-23.967-11.896-40.514-36.553-40.514-65.058c0-40.081,32.599-72.671,72.678-72.671c40.058,0,72.655,32.59,72.655,72.671
			c0,35.08-25.006,64.443-58.129,71.191v21.182c44.732-7.008,79.097-45.711,79.097-92.373c0-51.633-42.001-93.639-93.623-93.639
			c-51.627,0-93.639,42.006-93.639,93.639c0,47.578,35.715,86.894,81.732,92.775v-63.334h0.018v-6.484
			C121.471,151.695,130.595,152.707,151.605,152.305"/>
	</g>
</g>
</svg>
